 <svg
                    width="48"
                    height="48"
                    fill="none"
                    xmlns="http://www.w3.org/2000/svg"
                    class="mb-8"
                  >
                    <g clip-path="url(#clip0_1648_19589)">
                      <path
                        d="M18.66 23H23a9 9 0 019 9H17.998L18 34h16v-2a11.156 11.156 0 00-1.772-6H38a10 10 0 019.032 5.702C42.302 37.944 34.644 42 26 42c-5.522 0-10.2-1.18-14-3.25V20.142A13.935 13.935 0 0118.66 23zM8 18a2 2 0 011.986 1.766L10 20v18a2 2 0 01-2 2H4a2 2 0 01-2-2V20a2 2 0 012-2h4zM27.292 7.15l.708.71.708-.708a5 5 0 117.07 7.072L28 22l-7.78-7.78a5 5 0 117.072-7.07z"
                        fill="url(#paint0_linear_1648_19589)"
                      />
                    </g>
                    <defs>
                      <linearGradient
                        id="paint0_linear_1648_19589"
                        x1="24.516"
                        y1="5.669"
                        x2="24.516"
                        y2="42"
                        gradientUnits="userSpaceOnUse"
                      >
                        <stop stop-color="#8358FF" />
                        <stop offset="1" stop-color="#FD9BFF" />
                      </linearGradient>
                      <clipPath id="clip0_1648_19589">
                        <path fill="#fff" d="M0 0h48v48H0z" />
                      </clipPath>
                    </defs>
                  </svg>