  <svg
                    width="48"
                    height="48"
                    fill="none"
                    xmlns="http://www.w3.org/2000/svg"
                    class="mb-8"
                  >
                    <g clip-path="url(#clip0_1766_5788)">
                      <path
                        d="M22 4c8.136 0 14.852 6.072 15.868 13.93l4.5 7.078c.296.466.236 1.16-.45 1.456L38 28.14V34c0 2.21-1.79 4-4 4h-3.998L30 44H12v-7.388c0-2.36-.872-4.594-2.488-6.61A15.929 15.929 0 016 20c0-8.836 7.164-16 16-16zm-1.06 11.526a3.498 3.498 0 00-4.95 0 3.496 3.496 0 000 4.948L22 26.486l6.01-6.012a3.496 3.496 0 000-4.948 3.498 3.498 0 00-4.95 0L22 16.586l-1.06-1.06z"
                        fill="url(#paint0_linear_1766_5788)"
                      />
                    </g>
                    <defs>
                      <linearGradient
                        id="paint0_linear_1766_5788"
                        x1="24.268"
                        y1="4"
                        x2="24.268"
                        y2="44"
                        gradientUnits="userSpaceOnUse"
                      >
                        <stop stop-color="#8358FF" />
                        <stop offset="1" stop-color="#FD9BFF" />
                      </linearGradient>
                      <clipPath id="clip0_1766_5788">
                        <path fill="#fff" d="M0 0h48v48H0z" />
                      </clipPath>
                    </defs>
                  </svg>