 <svg
                    width="48"
                    height="48"
                    fill="none"
                    xmlns="http://www.w3.org/2000/svg"
                    class="mb-8"
                  >
                    <g clip-path="url(#clip0_1766_5760)">
                      <path
                        d="M36 16h4a2 2 0 012 2v24a2 2 0 01-2 2H8a2 2 0 01-2-2V18a2 2 0 012-2h4v-2a12 12 0 0124 0v2zM22 31.464V36h4v-4.536a4 4 0 10-4 0zM32 16v-2a8 8 0 00-16 0v2h16z"
                        fill="url(#paint0_linear_1766_5760)"
                      />
                    </g>
                    <defs>
                      <linearGradient
                        id="paint0_linear_1766_5760"
                        x1="24"
                        y1="2"
                        x2="24"
                        y2="44"
                        gradientUnits="userSpaceOnUse"
                      >
                        <stop stop-color="#8358FF" />
                        <stop offset="1" stop-color="#FD9BFF" />
                      </linearGradient>
                      <clipPath id="clip0_1766_5760">
                        <path fill="#fff" d="M0 0h48v48H0z" />
                      </clipPath>
                    </defs>
                  </svg>