<svg id="Layer_1" data-name="Layer 1" xmlns="http://www.w3.org/2000/svg" viewBox="0 0 1823.2 1823.2"><defs><style>.cls-1{fill:#f9ecde;}.cls-2{fill:#f15b22;}</style></defs><rect class="cls-1" width="1823.2" height="1823.2"/><path class="cls-2" d="M376.54,1316.15a8.18,8.18,0,0,1-2.61,6.43c-1.74,1.56-4.35,2.33-7.83,2.33H303.83a10.35,10.35,0,0,1-7.64-3,9.68,9.68,0,0,1-3-7.09,12.46,12.46,0,0,1,3.35-8.2l47.92-55.37H302.9q-5.22,0-7.83-2.24a9.46,9.46,0,0,1,0-13q2.61-2.24,7.83-2.23h60.22a10.46,10.46,0,0,1,7.74,2.89,9.76,9.76,0,0,1,2.89,7.17,12.41,12.41,0,0,1-3.17,8.21l-48.1,55.37H366.1Q376.54,1307.39,376.54,1316.15Z"/><path class="cls-2" d="M476.28,1314.84a11,11,0,0,1-3.07,7.65,9.46,9.46,0,0,1-7.18,3.35,10.94,10.94,0,0,1-7.65-3.35L414.76,1283v31.88c0,3.61-1.12,6.34-3.36,8.21a12.66,12.66,0,0,1-8.39,2.79,12.3,12.3,0,0,1-8.29-2.79c-2.18-1.87-3.26-4.6-3.26-8.21v-111.3c0-3.6,1.08-6.34,3.26-8.2a12.31,12.31,0,0,1,8.29-2.8,12.67,12.67,0,0,1,8.39,2.8c2.24,1.86,3.36,4.6,3.36,8.2v70.1l39.9-38.22a10.53,10.53,0,0,1,7.64-3.35,10.83,10.83,0,0,1,10.63,10.62,10.85,10.85,0,0,1-3.55,7.83l-29.27,27.22,32.44,29.09A10.79,10.79,0,0,1,476.28,1314.84Z"/><path class="cls-2" d="M504.72,1320.62a39.41,39.41,0,0,1-16-16.4q-5.58-10.63-5.59-24.8a52.12,52.12,0,0,1,5.87-25.07,41.59,41.59,0,0,1,16.5-16.88,49.14,49.14,0,0,1,24.43-6,54.25,54.25,0,0,1,14.63,2,48.44,48.44,0,0,1,13,5.59q6,3.91,6,9.88a10.51,10.51,0,0,1-2,6.62,6.2,6.2,0,0,1-5.13,2.52,11.15,11.15,0,0,1-4.29-.93,37.31,37.31,0,0,1-4.47-2.24,50.88,50.88,0,0,0-7.83-3.82,24.43,24.43,0,0,0-8.58-1.4q-11.56,0-17.8,7.55t-6.25,21.72q0,14,6.25,21.53t17.8,7.55a22.86,22.86,0,0,0,8.3-1.4,69.23,69.23,0,0,0,8.11-3.82,35.1,35.1,0,0,1,4.85-2.51,10.7,10.7,0,0,1,4.1-.84,6.2,6.2,0,0,1,5,2.61,10.21,10.21,0,0,1,2.05,6.52,10.48,10.48,0,0,1-1.4,5.5,12.46,12.46,0,0,1-4.57,4.2,49.09,49.09,0,0,1-13.42,5.87,57.73,57.73,0,0,1-15.66,2.14Q515.07,1326.4,504.72,1320.62Z"/><path class="cls-2" d="M580.59,1323.14q-3.26-2.88-3.26-8.3v-111.3c0-3.6,1.09-6.34,3.26-8.2a12.31,12.31,0,0,1,8.3-2.8,12.7,12.7,0,0,1,8.39,2.8c2.23,1.86,3.35,4.6,3.35,8.2v111.3q0,5.42-3.35,8.3a12.4,12.4,0,0,1-8.39,2.89A12,12,0,0,1,580.59,1323.14Z"/><path class="cls-2" d="M639.88,1320.62A39.91,39.91,0,0,1,623.56,1304q-5.77-10.82-5.78-25.17t5.78-25.07a40,40,0,0,1,16.32-16.5q10.53-5.77,24.51-5.78t24.52,5.78a39.52,39.52,0,0,1,16.22,16.5q5.68,10.73,5.68,25.07T705.13,1304a39.39,39.39,0,0,1-16.22,16.59q-10.53,5.79-24.52,5.78T639.88,1320.62Zm41.66-19.76q6-7.45,6-22,0-14.35-6-21.9t-17.15-7.55q-11.17,0-17.24,7.55t-6.06,21.9q0,14.55,6,22t17.16,7.46Q675.58,1308.32,681.54,1300.86Z"/><path class="cls-2" d="M808.69,1234.86a10.5,10.5,0,0,1,3.17,8v72.34a10.13,10.13,0,0,1-3.26,7.83,12.15,12.15,0,0,1-8.49,3,11.22,11.22,0,0,1-8-2.8,10,10,0,0,1-3-7.64v-4.66a29.81,29.81,0,0,1-11.56,11.46,33.35,33.35,0,0,1-16.41,4q-33.55,0-33.56-37.66v-45.86a10.5,10.5,0,0,1,3.17-8,11.77,11.77,0,0,1,8.39-3,12.07,12.07,0,0,1,8.58,3,10.5,10.5,0,0,1,3.17,8v46q0,9.69,3.91,14.36t12.31,4.66q9.69,0,15.56-6.44t5.88-17v-41.58a10.46,10.46,0,0,1,3.17-8,11.75,11.75,0,0,1,8.38-3A12,12,0,0,1,808.69,1234.86Z"/><path class="cls-2" d="M918.87,1195.53a10,10,0,0,1,3.36,7.83v111.48a10.5,10.5,0,0,1-3.17,8,13.3,13.3,0,0,1-16.78,0,10.5,10.5,0,0,1-3.17-8v-4.66a29.07,29.07,0,0,1-11.84,11.93,35.72,35.72,0,0,1-17.62,4.29,37.74,37.74,0,0,1-21-6,39.58,39.58,0,0,1-14.36-16.88q-5.13-10.9-5.12-25.07t5.12-24.8a37.67,37.67,0,0,1,35.33-22.18,36.56,36.56,0,0,1,17.53,4.1,28.49,28.49,0,0,1,11.74,11.56V1203a9.9,9.9,0,0,1,3.08-7.55,11.66,11.66,0,0,1,8.3-2.89A12.41,12.41,0,0,1,918.87,1195.53Zm-25.82,105.15q6.06-7.65,6.06-21.82t-6.06-21.72q-6.06-7.55-17.06-7.55-11.18,0-17.34,7.46t-6.15,21.44q0,14.17,6.15,22t17.16,7.83Q887,1308.32,893.05,1300.68Z"/><path class="cls-2" d="M1071.47,1233.75a9.71,9.71,0,0,1,5.5-1.68,11.72,11.72,0,0,1,7.73,2.89,9,9,0,0,1,3.45,7.18,9.46,9.46,0,0,1-.93,4.28l-30.76,72.15a11.2,11.2,0,0,1-4.57,5.41,12.9,12.9,0,0,1-6.8,1.86,12.58,12.58,0,0,1-6.62-1.86,11.2,11.2,0,0,1-4.57-5.41l-22.18-53.32-21.44,53.32a11.2,11.2,0,0,1-4.57,5.41,12.91,12.91,0,0,1-6.81,1.86,13,13,0,0,1-6.71-1.86,11,11,0,0,1-4.66-5.41L937,1246.42a11.64,11.64,0,0,1-.94-4.1,9.28,9.28,0,0,1,3.73-7.36,12.62,12.62,0,0,1,8.21-3.08,10.43,10.43,0,0,1,5.77,1.68,10.15,10.15,0,0,1,3.92,5l22,56.87,22.56-56.31a11.34,11.34,0,0,1,16.59-5.31,11.26,11.26,0,0,1,4.29,5.31l22.74,56.49,21.82-56.86A10.18,10.18,0,0,1,1071.47,1233.75Z"/><path class="cls-2" d="M1117.7,1320.62a40,40,0,0,1-16.31-16.59q-5.79-10.82-5.78-25.17t5.78-25.07a40.08,40.08,0,0,1,16.31-16.5q10.53-5.77,24.52-5.78t24.51,5.78a39.52,39.52,0,0,1,16.22,16.5q5.68,10.73,5.69,25.07T1183,1304a39.39,39.39,0,0,1-16.22,16.59q-10.53,5.79-24.51,5.78T1117.7,1320.62Zm41.67-19.76q6-7.45,6-22,0-14.35-6-21.9t-17.15-7.55q-11.19,0-17.25,7.55t-6.06,21.9q0,14.55,6,22t17.15,7.46Q1153.4,1308.32,1159.37,1300.86Z"/><path class="cls-2" d="M1264.52,1233.93q2.79,2.43,2.79,7.27,0,5-2.42,7.46c-1.62,1.62-4.54,2.67-8.76,3.17l-5.6.56q-11,1.13-16.12,7.46t-5.13,15.84v39.15q0,5.42-3.36,8.3a12.37,12.37,0,0,1-8.39,2.89,12,12,0,0,1-8.29-2.89c-2.18-1.92-3.26-4.69-3.26-8.3v-72.15c0-3.47,1.08-6.15,3.26-8a12,12,0,0,1,8.11-2.8,11.22,11.22,0,0,1,7.83,2.7q3,2.72,3,7.74v7.46a27.57,27.57,0,0,1,10.53-12.68,32.32,32.32,0,0,1,15.57-5l2.61-.19C1260.1,1231.63,1262.65,1232.32,1264.52,1233.93Z"/><path class="cls-2" d="M1360.34,1314.84a11,11,0,0,1-3.07,7.65,9.46,9.46,0,0,1-7.18,3.35,10.94,10.94,0,0,1-7.65-3.35L1298.82,1283v31.88c0,3.61-1.12,6.34-3.36,8.21a12.66,12.66,0,0,1-8.39,2.79,12.3,12.3,0,0,1-8.29-2.79c-2.18-1.87-3.26-4.6-3.26-8.21v-111.3c0-3.6,1.08-6.34,3.26-8.2a12.31,12.31,0,0,1,8.29-2.8,12.67,12.67,0,0,1,8.39,2.8c2.24,1.86,3.36,4.6,3.36,8.2v70.1l39.9-38.22a10.53,10.53,0,0,1,7.64-3.35,10.83,10.83,0,0,1,10.63,10.62,10.85,10.85,0,0,1-3.55,7.83l-29.27,27.22,32.44,29.09A10.79,10.79,0,0,1,1360.34,1314.84Z"/><path class="cls-2" d="M1449.55,1302.35a10.09,10.09,0,0,1,2,6.53q0,5.77-6.9,9.69a62.09,62.09,0,0,1-14.35,5.69,59.18,59.18,0,0,1-15.29,2.14q-22,0-34.86-12.67t-12.87-34.68a53.33,53.33,0,0,1,5.59-24.8,40.72,40.72,0,0,1,15.76-16.78,44.67,44.67,0,0,1,23-6q12.32,0,21.44,5.41a36.69,36.69,0,0,1,14.17,15.28q5,9.88,5,23.31,0,8-7.08,8h-55q1.13,12.87,7.27,18.93t17.9,6.06a33.7,33.7,0,0,0,10.53-1.5,102.19,102.19,0,0,0,10.35-4.1c3.73-2,6.46-3,8.2-3A6.28,6.28,0,0,1,1449.55,1302.35ZM1397,1253.88q-5.7,6-6.81,17.15h42.14q-.37-11.37-5.6-17.24t-14.54-5.88Q1402.66,1247.91,1397,1253.88Z"/><path class="cls-2" d="M1527.94,1233.93q2.8,2.43,2.8,7.27,0,5-2.42,7.46c-1.62,1.62-4.54,2.67-8.76,3.17l-5.6.56q-11,1.13-16.12,7.46t-5.13,15.84v39.15q0,5.42-3.36,8.3A12.37,12.37,0,0,1,1481,1326a12,12,0,0,1-8.29-2.89q-3.27-2.88-3.27-8.3v-72.15c0-3.47,1.09-6.15,3.27-8a12,12,0,0,1,8.11-2.8,11.22,11.22,0,0,1,7.83,2.7c2,1.81,3,4.39,3,7.74v7.46a27.57,27.57,0,0,1,10.53-12.68,32.29,32.29,0,0,1,15.57-5l2.61-.19C1523.53,1231.63,1526.08,1232.32,1527.94,1233.93Z"/><path class="cls-2" d="M607.37,944.1c-47.31-83.82-.16-203.7,111.93-215.25,68.89-7.1,124,24.92,170.09,72.17,21.55,22.08,37.79,49.37,56.26,74.43,12.05,16.34,22.46,34.1,35.92,49.15,30.19,33.74,72.88,42.87,110.81,25.72,35.91-16.23,57.06-52.83,53.39-92.37-3.76-40.57-34.2-73.68-77.11-84.41-35.38-8.86-66.88,2.51-100.1,19.66-6.54-34.38-16.7-66.45-45.24-88.05-30.43-23-61.32-22.19-92.06,1.36.26-32.8,25.21-62,56.92-68.13,45.48-8.8,83.85,21.34,109.62,86.35,1.84-.14,4,.16,5.69-.5,75.14-28.41,142.5-11,189.62,49.18,45.19,57.69,46.28,136.91,2.72,199.3-63,90.22-173.55,99.66-250,19.88-21-21.86-36.42-48.88-56.13-72.08-23.53-27.71-45.06-59.4-74.22-79.63C730.88,782.24,637.2,822,611.77,923.52,610.19,929.85,609,936.29,607.37,944.1Z"/><path class="cls-2" d="M592,761.63c-14.09-91.82,61.26-159.92,161.35-148.83,24.08-67.58,66.26-116.56,143.6-116,71.47.52,120.34,39.44,149.79,105.66,59.12-17.52,107.56,2.11,146.52,47.08,23.88,27.56,33.25,60.5,28.13,102.8-49.23-79.51-112.57-112.26-200.51-80.69-24.05-57.43-64.68-92.41-128.65-91.42-47.88.75-79.33,31.25-106.1,98C701.76,655.26,636.23,680.23,592,761.63Z"/><path class="cls-2" d="M862.8,1122.4c-25.48,11-48,9.22-70.53,4.11-57.13-13-102.3-43.14-129.89-95.72-21.77-41.49-19.65-82.72,9.3-120.42,27.38-35.65,70.67-46.82,108.57-23,26.29,16.49,48.93,40.06,69.91,63.42,24.35,27.11,43,59.4,67.88,86,39.56,42.25,90.07,61.37,148.36,58.54,5.22-.25,10.46,0,19.22.09-29.18,36.06-64.27,51.2-106.83,48.3-46.32-3.17-84-26.08-116.09-57.51-21.68-21.25-39.54-46.34-60.1-68.81-10.85-11.87-22.41-24.59-36.32-31.64-9.42-4.77-25.53-4.14-35,.91-13.22,7-15.52,24.23-7.26,36,13.37,19,28.11,38.67,46.55,52.24,22.07,16.25,48.6,26.44,73.27,39.13C849,1116.57,854.35,1118.65,862.8,1122.4Z"/></svg>